<svg xmlns="http://www.w3.org/2000/svg" xmlns:xlink="http://www.w3.org/1999/xlink" version="1.1" viewBox="0 0 2500 1000" style="background: #ffffff"><g transform="translate(25,100)"><rect width="450" height="300" rx="20" ry="20" x="0" y="0" fill="#ffffff" stroke-width="2" stroke="#715595" stroke-dasharray=""/><text x="225" y="95" text-anchor="middle" dominant-baseline="hanging" fill="#715595" font-size="30px" font-family="Tahoma, Verdana, Helvetica, Arial"><tspan x="225" dy="40px">Boundary, Container, Build</tspan></text></g><g transform="translate(525,100)"><rect width="450" height="300" rx="20" ry="20" x="0" y="0" fill="#ffffff" stroke-width="2" stroke="#2f6a9e" stroke-dasharray=""/><text x="225" y="77" text-anchor="middle" dominant-baseline="hanging" fill="#2f6a9e" font-size="30px" font-family="Tahoma, Verdana, Helvetica, Arial"><tspan x="225" dy="40px">Boundary, Software</tspan><tspan x="225" dy="40px">System</tspan></text></g><g transform="translate(1025,100)"><rect width="450" height="300" rx="20" ry="20" x="0" y="0" fill="#5699cc" stroke-width="2" stroke="#4d8ab8" stroke-dasharray=""/><text x="225" y="95" text-anchor="middle" dominant-baseline="hanging" fill="#000000" font-size="30px" font-family="Tahoma, Verdana, Helvetica, Arial"><tspan x="225" dy="40px">Component</tspan></text></g><g transform="translate(1525,100)"><rect width="450" height="300" rx="20" ry="20" x="0" y="0" fill="#7d5ea6" stroke-width="2" stroke="#715595" stroke-dasharray=""/><text x="225" y="95" text-anchor="middle" dominant-baseline="hanging" fill="#ffffff" font-size="30px" font-family="Tahoma, Verdana, Helvetica, Arial"><tspan x="225" dy="40px">Container, Build</tspan></text></g><g transform="translate(2025,100)"><rect width="150" height="75" rx="15" ry="15" x="15" y="0" fill="#2f7a58" stroke-width="2" stroke="#2a6e4f" stroke-dasharray=""/><rect width="450" height="262.5" rx="6" ry="6" x="0" y="37.5" fill="#2f7a58" stroke-width="2" stroke="#2a6e4f" stroke-dasharray=""/><text x="225" y="95.75" text-anchor="middle" dominant-baseline="hanging" fill="#ffffff" font-size="30px" font-family="Tahoma, Verdana, Helvetica, Arial"><tspan x="225" dy="40px">Container, Build, Source of</tspan><tspan x="225" dy="40px">truth</tspan></text></g><g transform="translate(25,555.5)"><polygon points="112.5,0 337.5,0 450,194.5 337.5,389 112.5,389 0,194.5" fill="#a8571c" stroke-width="2" stroke="#974e19" stroke-dasharray=""/><text x="225" y="139.5" text-anchor="middle" dominant-baseline="hanging" fill="#ffffff" font-size="30px" font-family="Tahoma, Verdana, Helvetica, Arial"><tspan x="225" dy="40px">Container, Build, Verifier</tspan></text></g><g transform="translate(525,600)"><path id="keyElementCylinderPath" d="M 0,22.5 a 225,22.5 0,0,0 450 0 a 225,22.5 0,0,0 -450 0 l 0,255 a 225,22.5 0,0,0 450 0 l 0,-255" fill="#3d84bd" stroke-width="2" stroke="#3777aa" stroke-dasharray=""></path><text x="225" y="99.5" text-anchor="middle" dominant-baseline="hanging" fill="#ffffff" font-size="30px" font-family="Tahoma, Verdana, Helvetica, Arial"><tspan x="225" dy="40px">Container, Runtime,</tspan><tspan x="225" dy="40px">Derived store</tspan></text></g><g transform="translate(1025,670)"><path d="M422,0 L422,44 L450,30 L 422,16" style="fill:#444444" /><path d="M0,30 L422,30" style="stroke:#444444; stroke-width: 2; fill: none; stroke-dasharray: 8 8;" /><text x="225" y="55" text-anchor="middle" dominant-baseline="hanging" fill="#444444" font-size="30px" font-family="Tahoma, Verdana, Helvetica, Arial"><tspan x="225" dy="40px">Relationship</tspan></text></g></svg>